<?xml version="1.0"?><svg width="640" height="480" xmlns="http://www.w3.org/2000/svg">
 <metadata id="metadata7">image/svg+xmlreading man with glasses2007-02-09nlylpublic domainopenclipart.orgmanreadingglasseseducationschoolbookpersonA simple picture of a man with glasses reading an orange book.</metadata>
 <g>
  <title>Layer 1</title>
  <g id="layer1">
   <path d="m285.158661,53.337021l-1.485657,0.034279c-45.087708,1.249298 -82.578796,34.171516 -94.630219,78.708473c-0.92836,-1.069443 -2.515869,-1.604126 -5.070618,-1.559769l-0.290695,0c-10.949554,0.44249 -19.62793,14.664246 -19.50737,31.9496c0.121674,17.447479 9.194977,31.456055 20.250229,31.264008c1.900101,-0.033035 3.253479,-0.587433 4.198593,-1.559784c11.945129,46.77774 51.816666,80.930206 98.764221,80.371063c45.522003,-0.542145 83.721008,-33.553833 96.018982,-78.451355c0.717712,0.288315 1.569397,0.44545 2.567627,0.462799c11.055206,0.192032 20.12851,-13.816544 20.250214,-31.264008c0.120605,-17.285339 -8.573914,-31.50708 -19.523529,-31.9496l-0.29071,0c-1.229828,-0.021362 -2.220581,0.099823 -3.035919,0.342804c-12.564301,-45.736374 -51.946686,-78.899551 -98.215149,-78.348511z" id="path2886" stroke-dashoffset="0" stroke-miterlimit="4" stroke-linejoin="round" stroke-linecap="round" stroke-width="6" stroke="#000000" fill-rule="evenodd" fill="#ffffff"/>
   <path id="path3884" d="m285.158661,53.337021l-1.485657,0.034279c-45.087708,1.249298 -82.578796,34.171516 -94.630219,78.708473c-0.92836,-1.069443 -2.515869,-1.604126 -5.070618,-1.559769l-0.290695,0c-10.949554,0.44249 -19.62793,14.664246 -19.50737,31.9496c0.121674,17.447479 9.194977,31.456055 20.250229,31.264008c1.900101,-0.033035 3.253479,-0.587433 4.198593,-1.559784c11.945129,46.77774 51.816666,80.930206 98.764221,80.371063c45.522003,-0.542145 83.721008,-33.553833 96.018982,-78.451355c0.717712,0.288315 1.569397,0.44545 2.567627,0.462799c11.055206,0.192032 20.12851,-13.816544 20.250214,-31.264008c0.120605,-17.285339 -8.573914,-31.50708 -19.523529,-31.9496l-0.29071,0c-1.229828,-0.021362 -2.220581,0.099823 -3.035919,0.342804c-12.564301,-45.736374 -51.946686,-78.899551 -98.215149,-78.348511z" stroke-dashoffset="0" stroke-miterlimit="4" stroke-linejoin="round" stroke-linecap="round" stroke-width="6" stroke="#000000" fill-rule="evenodd" fill="#ffffff"/>
   <path d="m393.729523,114.093979c0.467346,4.4991 0.546814,7.978424 -3.851624,11.494385c-3.513275,2.80835 -4.382507,6.440598 -9.24408,9.031357c-3.546692,1.889999 -9.682861,2.463058 -13.86615,2.463058c-5.335815,0 -8.57785,-0.465942 -12.325409,-2.463058c-5.240112,-2.792511 -5.548096,-3.450134 -9.24408,-7.389267c-3.443207,-3.669876 -4.511078,-7.271011 -6.933014,-9.852356c-3.732788,-3.978394 -6.489288,-6.095261 -9.24408,-9.031326c-3.63681,-3.876129 -13.736877,1.573166 -16.947479,3.284119c-4.294708,2.288666 -7.884918,5.119644 -11.555054,9.031296c-4.417023,4.707672 -11.611877,7.261368 -16.947449,10.673416c-4.235504,2.708511 -10.833862,4.308975 -13.866089,0c-3.688141,-5.241119 0.732941,-8.170517 3.851715,-11.494446c3.501617,-3.73204 -0.753113,-9.833954 -2.311035,-11.494385c-2.256775,-2.405258 -9.20578,-0.420731 -10.78476,0c-3.355957,0.89418 -8.502747,7.404709 -11.555084,9.031326c-3.192932,1.701538 -5.794067,2.89119 -7.703369,4.926147c-1.652039,1.760742 -12.815567,4.590363 -14.636459,4.105179c-2.436569,-0.649261 12.904343,-19.34523 8.47374,-20.525742c-5.341385,-1.423233 -22.503174,11.830231 -26.191528,14.778503c-3.875656,3.098053 -4.139999,14.871033 -8.473709,17.241623c-4.502808,2.463089 -2.184525,-0.82103 -8.47374,-0.82103c-4.761276,0 -6.604065,-4.344711 -7.703384,-9.031326c-1.074936,-4.582672 -0.866425,-9.92247 -0.770325,-14.778534c0.113251,-5.724075 11.192444,-26.481964 11.555069,-27.093933c3.588318,-6.056091 -0.059204,-1.945236 6.933044,-4.926208c5.909546,-2.519363 6.167603,-11.703583 10.014404,-14.778557c4.84111,-3.869713 9.902115,-5.50779 12.325424,-10.673355c2.030716,-4.328697 8.8255,-2.650551 13.095764,-4.926186c6.84404,-3.647171 12.839828,-5.966515 20.028793,-9.031326c13.674225,-5.829597 27.468964,-5.275864 46.990662,-5.747208c7.586945,-0.190712 26.11441,-11.919174 53.153381,18.06266c5.21994,5.788055 15.048492,18.692741 21.569458,22.167793c6.002228,3.198578 -0.458405,10.184845 3.081421,13.957504c2.547211,2.714874 6.932983,12.566086 6.932983,16.420578c0,4.696304 0.055054,5.442322 4.62204,7.389297z" id="path2894" stroke-width="6" stroke="#000000" fill-rule="evenodd" fill="#ffffff"/>
   <path id="path3781" d="m248.833679,145.215576c12.91568,-0.138977 23.514008,9.966476 23.703186,22.600861c0.189148,12.634399 -10.102051,23.039185 -23.016388,23.270325c-12.914337,0.231171 -23.587753,-9.79834 -23.87117,-22.431046c-0.283386,-12.632721 9.929932,-23.110672 22.842178,-23.434006" stroke-dashoffset="0" stroke-miterlimit="4" stroke-linejoin="round" stroke-linecap="round" stroke-width="6" stroke="#000000" fill-rule="evenodd" fill="#ffffff"/>
   <path d="m311.815643,144.113815c12.915741,-0.138947 23.514038,9.966492 23.703247,22.600876c0.189117,12.634399 -10.102081,23.039154 -23.016418,23.270325c-12.914337,0.231155 -23.587738,-9.798355 -23.871155,-22.431046c-0.283417,-12.632721 9.929932,-23.110687 22.842133,-23.434036" id="path3783" stroke-dashoffset="0" stroke-miterlimit="4" stroke-linejoin="round" stroke-linecap="round" stroke-width="6" stroke="#000000" fill-rule="evenodd" fill="#ffffff"/>
   <path id="path3785" d="m245.374481,170.204956c3.182434,-0.032379 5.793915,2.318649 5.840607,5.258102c0.046661,2.939438 -2.489044,5.360229 -5.671143,5.414093c-3.182068,0.053818 -5.812057,-2.279556 -5.881973,-5.218613c-0.06987,-2.939056 2.44664,-5.376862 5.62822,-5.452164" stroke-dashoffset="0" stroke-miterlimit="4" stroke-linejoin="round" stroke-linecap="round" stroke-width="6" stroke="#000000" fill-rule="evenodd" fill="#ffffff"/>
   <path d="m309.313843,169.103363c3.182404,-0.032425 5.793884,2.318619 5.840576,5.258087c0.046692,2.939453 -2.489044,5.360214 -5.671143,5.414063c-3.182068,0.053833 -5.812073,-2.279526 -5.881958,-5.218613c-0.069885,-2.939056 2.446625,-5.376831 5.628204,-5.452118" id="path3787" stroke-dashoffset="0" stroke-miterlimit="4" stroke-linejoin="round" stroke-linecap="round" stroke-width="6" stroke="#000000" fill-rule="evenodd" fill="#ffffff"/>
   <path d="m225.607712,144.520691c3.566727,-1.79599 6.903702,-5.990158 11.967606,-7.339447c5.467224,-1.456757 12.442841,-2.141479 16.908752,-2.28096c1.852203,-0.057861 7.260315,7.265808 7.7034,8.210281" id="path3789" stroke-miterlimit="4" stroke-width="6" stroke="#000000" fill-rule="evenodd" fill-opacity="0.75" fill="#ffffff"/>
   <path id="path3791" d="m332.238739,142.838562c-3.566742,-1.796021 -6.903717,-5.990219 -11.967621,-7.339478c-5.467194,-1.456741 -12.442841,-2.141479 -16.908752,-2.280975c-1.852234,-0.057861 -7.260315,7.265854 -7.703369,8.210297" stroke-miterlimit="4" stroke-width="6" stroke="#000000" fill-rule="evenodd" fill-opacity="0.75" fill="#ffffff"/>
   <path d="m273.052338,174.200729c-4.481903,3.885147 -6.53656,12.220917 -6.53656,20.900009c0,7.262543 1.765076,10.449982 8.715393,10.449982c3.315643,0 3.902252,-2.997955 5.447083,-4.64444" id="path3793" stroke-miterlimit="4" stroke-width="6" stroke="#000000" fill-rule="evenodd" fill-opacity="0.75" fill="#ffffff"/>
   <path d="m271.962891,168.395187c2.580292,-7.043823 16.133026,-8.231155 16.209167,-1.289902" id="path3795" stroke-miterlimit="4" stroke-width="6" stroke="#000000" fill-rule="evenodd" fill-opacity="0.75" fill="#ffffff"/>
   <path d="m226.566025,163.355728c-1.547546,0.217361 -6.612793,-4.430328 -10.014389,-5.33667c-2.839813,-0.756683 -6.293182,-4.106491 -8.858887,-5.747223c-2.821381,-1.804199 -5.358124,-4.657928 -7.703415,-6.15773c-1.996017,-1.276382 -4.440506,-2.897141 -5.392365,-4.926178c-0.904083,-1.92717 -3.35582,-3.166138 -4.236862,-4.105148c-0.911194,-0.971146 -0.816864,-1.66684 -2.31102,-2.463058" id="path3797" stroke-miterlimit="4" stroke-width="6" stroke="#000000" fill-rule="evenodd" fill-opacity="0.75" fill="#ffffff"/>
   <path id="path3799" d="m334.413452,164.587296c1.547577,0.217361 6.612793,-4.430359 10.014374,-5.336716c2.839874,-0.756683 6.293213,-4.106461 8.858948,-5.747208c2.82132,-1.804169 5.358063,-4.657944 7.703369,-6.157715c1.995972,-1.276413 4.440491,-2.897171 5.392395,-4.926178c0.904083,-1.9272 3.355804,-3.166153 4.236786,-4.105164c0.911285,-0.97113 0.816895,-1.666824 2.311096,-2.463074" stroke-miterlimit="4" stroke-width="6" stroke="#000000" fill-rule="evenodd" fill-opacity="0.75" fill="#ffffff"/>
   <path d="m243.898682,228.217072c4.128082,3.182312 11.430298,5.181427 17.332611,6.97876c3.866302,1.177368 9.770508,0 13.866089,0c4.914368,0 10.028137,0.410522 15.021606,0.410522c3.081329,0 6.16272,0 9.244049,0c2.824554,0 5.649139,0 8.473724,0c1.215057,0 1.972137,-0.21759 2.696167,-0.410522" id="path3801" stroke-miterlimit="4" stroke-width="6" stroke="#000000" fill-rule="evenodd" fill-opacity="0.75" fill="#ffffff"/>
   <rect transform="matrix(-0.5146436603849929,-0.049497693524537256,0,0.5484910090326522,307.3812738833853,298.79240810682245) " rx="26.424755" ry="19.481138" y="-89.822306" x="63.997559" height="305.41351" width="229.01462" id="rect3805" stroke-dashoffset="0" stroke-miterlimit="4" stroke-linejoin="round" stroke-linecap="round" stroke-width="6" stroke="#000000" fill-rule="evenodd" fill="#ffffff"/>
   <rect transform="matrix(-0.5146436603849929,-0.049497693524537256,0,0.5484910090326522,307.3812738833853,298.79240810682245) " rx="26.424738" ry="19.481138" y="-86.049626" x="62.236209" height="305.41351" width="229.01447" id="rect3809" stroke-dashoffset="0" stroke-miterlimit="4" stroke-linejoin="round" stroke-linecap="round" stroke-width="6" stroke="#000000" fill-rule="evenodd" fill="#ffffff"/>
   <rect id="rect3807" width="229.01447" height="305.41351" x="62.236209" y="-86.049626" ry="19.481138" rx="26.424738" transform="matrix(-0.5146436603849929,-0.049497693524537256,0,0.5484910090326522,307.3812738833853,298.79240810682245) " stroke-dashoffset="0" stroke-miterlimit="4" stroke-linejoin="round" stroke-linecap="round" stroke-width="6" stroke="#000000" fill-rule="evenodd" fill="#ffffff"/>
   <path d="m155.360046,311.370178c12.261307,-0.120758 22.322037,8.685516 22.456985,19.656799c0.134979,10.971313 -38.798904,40.520386 -51.060211,40.641174c-12.261284,0.120728 -22.322014,-8.685516 -22.456978,-19.65683c-0.13372,-10.869324 38.591927,-40.357574 50.736061,-40.635864" id="path3825" stroke-dashoffset="0" stroke-miterlimit="4" stroke-linejoin="round" stroke-linecap="round" stroke-width="6" stroke="#000000" fill-rule="evenodd" fill="#ffffff"/>
   <rect id="rect3811" width="229.01468" height="305.41351" x="63.997439" y="-80.725016" ry="19.481138" rx="26.424763" transform="matrix(-0.5146436603849929,-0.049497693524537256,0,0.5484910090326522,307.3812738833853,298.79240810682245) " stroke-dashoffset="0" stroke-miterlimit="4" stroke-linejoin="round" stroke-linecap="round" stroke-width="6" stroke="#000000" fill-rule="evenodd" fill="#ffffff"/>
   <path stroke="#000000" d="m259.631439,250.980652l-89.388382,-6.392944c-7.140137,-0.701111 -12.888321,3.345459 -12.888321,9.073029l0,141.404572c0,5.727509 5.748184,10.902985 12.888321,11.604065l84.381638,9.6633c7.140106,0.70108 15.199097,2.786407 15.199097,-2.941223l0,-154.485809c0,-5.7276 -3.052246,-7.223907 -10.192352,-7.924988z" id="rect3859" stroke-opacity="0" stroke-dashoffset="0" stroke-miterlimit="4" stroke-linejoin="round" stroke-linecap="round" stroke-width="6" fill-rule="evenodd" fill="#ffffff" opacity="0.67029"/>
   <path stroke="#000000" d="m256.935486,250.605896l-89.00325,-7.244293c-7.140121,-0.704407 -12.888321,5.003937 -12.888321,10.758362l0,142.0672c0,5.754395 3.437378,13.007599 10.577499,13.711975l93.239761,8.47644c7.140106,0.704407 9.036957,-0.0755 9.036957,-5.829926l-0.770264,-156.031189c0,-9.040039 -3.052277,-5.204193 -10.192383,-5.908569z" id="rect3894" stroke-opacity="0" stroke-dashoffset="0" stroke-miterlimit="4" stroke-linejoin="round" stroke-linecap="round" stroke-width="6" fill-rule="evenodd" fill="#ffffff" opacity="0.67029"/>
   <path d="m149.594864,306.160858c0.109772,9.867279 -6.105484,14.428406 -4.664337,24.147369c2.636688,17.782196 0.519119,8.750336 0.778687,10.446136c1.010178,6.599609 2.377625,15.664886 2.377625,22.384033c0,3.346161 3.386337,5.595978 6.180206,5.595978c2.465851,0 4.931747,0 7.397614,0c3.114304,0 3.999802,-1.156372 5.84024,-3.561066c1.72583,-2.255005 3.409286,-3.574219 3.893463,-6.104736c0.673416,-3.519562 1.257797,-6.046112 -1.16803,-7.63092c-4.572159,-2.987061 -2.238235,-2.702759 1.946747,-4.069824c2.336136,-0.763123 4.195663,-2.966949 5.84021,-4.578552c2.877411,-2.819763 -3.782639,-6.933563 -4.67218,-7.63092c-1.683411,-1.319733 -4.873444,-1.657654 -7.00827,-3.052338c-3.091644,-2.019836 3.698761,-1.73819 5.061523,-2.034973c3.419479,-0.744659 5.977356,-1.531891 8.565674,-3.561127c2.778046,-2.177856 -0.584259,-5.214539 -1.946747,-6.104706c-2.970917,-1.940918 -6.276703,-2.54361 -9.733704,-2.54361c-4.823639,0 1.186417,0 3.114777,0c3.65358,0 4.944153,-2.075317 7.786987,-3.561127c2.173584,-1.135986 1.557388,-5.77002 1.557388,-8.139618c0,-2.186768 -7.209106,-2.54364 -8.565659,-2.54364c-3.37439,0 -6.748734,0 -10.123077,0c-2.855209,0 -5.710449,0 -8.565674,0c-2.406311,0 -2.07254,-0.43045 -3.893463,2.54364z" id="path2882" stroke-width="6" stroke="#000000" fill-rule="evenodd" fill="#ffffff"/>
   <rect id="rect3813" width="255.24567" height="300.56924" x="-50.499209" y="-99.896327" ry="19.172146" rx="29.45141" transform="matrix(0.5151087371927149,-0.04370648960003662,0,0.5484910090326522,307.3812738833853,298.79240810682245) " stroke-dashoffset="0" stroke-miterlimit="4" stroke-linejoin="round" stroke-linecap="round" stroke-width="6" stroke="#000000" fill-rule="evenodd" fill="#ffffff"/>
   <rect id="rect3815" width="234.49199" height="300.61145" x="-31.278926" y="-94.735274" ry="19.174835" rx="27.056757" transform="matrix(0.5148038535076527,-0.04758143597118996,0,0.5484910090326522,307.3812738833853,298.79240810682245) " stroke-dashoffset="0" stroke-miterlimit="4" stroke-linejoin="round" stroke-linecap="round" stroke-width="6" stroke="#000000" fill-rule="evenodd" fill="#ffffff"/>
   <path id="path3828" d="m410.64502,319.572998c-12.905945,-0.107635 -23.495636,7.741547 -23.637726,17.520508c-0.142029,9.7789 40.838959,36.116516 53.744843,36.224091c12.906006,0.107666 23.495728,-7.741486 23.637787,-17.520416c0.140717,-9.68808 -40.621094,-35.971405 -53.403656,-36.219452" stroke-dashoffset="0" stroke-miterlimit="4" stroke-linejoin="round" stroke-linecap="round" stroke-width="6" stroke="#000000" fill-rule="evenodd" fill="#ffffff"/>
   <rect transform="matrix(0.5144814002542988,-0.05135963949817013,0,0.5484910090326522,307.3812738833853,298.79240810682245) " rx="24.833229" ry="18.996376" y="-90.331159" x="-11.857474" height="297.81363" width="215.22142" id="rect3817" stroke-dashoffset="0" stroke-miterlimit="4" stroke-linejoin="round" stroke-linecap="round" stroke-width="6" stroke="#000000" fill-rule="evenodd" fill="#ffffff"/>
   <rect transform="matrix(0.5147785326592322,-0.04788924912545909,0,0.5484910090326522,307.3812738833853,298.79240810682245) " rx="26.875612" ry="19.169685" y="-89.349689" x="-28.065709" height="300.53067" width="232.92207" id="rect3819" stroke-dashoffset="0" stroke-miterlimit="4" stroke-linejoin="round" stroke-linecap="round" stroke-width="6" stroke="#000000" fill-rule="evenodd" fill="#ffffff"/>
   <path stroke="#000000" d="m401.242706,242.274536l-100.320313,10.075287c-6.992432,-0.657501 0.087738,4.772247 0.087738,10.143097l2.310791,136.686798c0,5.370941 -5.539612,12.267975 1.452789,12.925415l95.313599,-7.213715c6.222168,-0.977692 10.695984,-4.363464 10.695984,-9.734406l0.385193,-140.774628c0.385132,-7.414856 -2.93335,-11.450409 -9.925781,-12.107849z" id="rect3877" stroke-opacity="0" stroke-dashoffset="0" stroke-miterlimit="4" stroke-linejoin="round" stroke-linecap="round" stroke-width="6" fill-rule="evenodd" fill="#ffffff" opacity="0.67029"/>
   <path id="path2884" d="m414.745789,310.698151c-0.12796,8.375183 3.321106,13.727478 1.872253,22.005096c-0.253448,1.447906 0.507019,8.956848 0.204681,10.396179c-1.176575,5.601593 0.863007,11.776367 0.863007,17.479523c0,2.840088 -5.127777,3.230194 -8.381805,3.230194c-2.872131,0 -5.744232,0 -8.616302,0c-3.627319,0 -4.658752,-0.981567 -6.802246,-3.022583c-2.010162,-1.914001 -3.970978,-3.033722 -4.534912,-5.18158c-0.784332,-2.987305 -1.465027,-5.131805 1.360443,-6.476898c5.325348,-2.535309 2.606995,-2.294098 -2.267395,-3.454437c-2.721039,-0.647675 -4.886871,-2.51825 -6.802307,-3.886078c-3.351349,-2.393402 4.405731,-5.885071 5.441864,-6.47702c1.960693,-1.120117 5.676208,-1.406982 8.16275,-2.590759c3.600952,-1.714355 -4.308044,-1.475311 -5.895355,-1.727173c-3.982758,-0.63208 -6.962006,-1.300262 -9.976685,-3.022583c-3.235657,-1.848572 0.68045,-4.426025 2.267426,-5.181519c3.460327,-1.647461 7.310638,-2.159058 11.337158,-2.159058c5.618286,0 -1.381836,0 -3.627899,0c-4.255432,0 -5.758636,-1.761383 -9.069672,-3.022522c-2.531708,-0.964233 -1.813965,-4.89743 -1.813965,-6.908783c0,-1.855988 8.396637,-2.158936 9.976685,-2.158936c3.930237,0 7.860382,0 11.79068,0c3.3255,0 6.651093,0 9.976685,0c2.802734,0 2.413971,-0.365326 4.534912,2.158936z" stroke-width="6" stroke="#000000" fill-rule="evenodd" fill="#ffffff"/>
   <rect id="rect3823" width="31.081524" height="172.384022" x="270.596361" y="247.816245" rx="27.543703" ry="25.743689" stroke-dashoffset="0" stroke-miterlimit="4" stroke-linejoin="round" stroke-linecap="round" stroke-width="6" stroke="#000000" fill-rule="evenodd" fill="#ffffff"/>
   <path stroke="#000000" d="m403.865021,242.396057l-90.930267,9.958649c-7.459808,-0.70108 -10.384277,7.024567 -10.384277,12.752106l-0.385132,147.127686c0,5.727539 -4.640289,0.683289 2.81955,1.384338l95.626617,-10.367401c7.459839,0.70105 9.613983,-5.798248 9.613983,-11.525818l0.942719,-132.819977c0,-5.7276 0.156586,-15.808502 -7.303192,-16.509583z" id="rect3898" stroke-opacity="0" stroke-dashoffset="0" stroke-miterlimit="4" stroke-linejoin="round" stroke-linecap="round" stroke-width="6" fill-rule="evenodd" fill="#ffffff" opacity="0.67029"/>
   <rect ry="25.743689" rx="27.543703" y="247.816245" x="270.596361" height="172.384022" width="31.081524" id="rect3916" stroke-dashoffset="0" stroke-miterlimit="4" stroke-linejoin="round" stroke-linecap="round" stroke-width="6" stroke="#000000" fill-rule="evenodd" fill="#ffffff"/>
  </g>
  <line id="svg_2" y2="301" x2="156" y1="248" x1="156" stroke-width="6" stroke="#000000" fill="none"/>
  <line id="svg_3" y2="404" x2="157" y1="372" x1="156" stroke-width="6" stroke="#000000" fill="none"/>
  <line id="svg_4" y2="418" x2="274" y1="405" x1="156" stroke-width="6" stroke="#000000" fill="none"/>
  <line id="svg_5" y2="309" x2="380" y1="308" x1="412" stroke-width="6" stroke="#000000" fill="none"/>
  <line id="svg_6" y2="315" x2="378" y1="307" x1="381" stroke-width="6" stroke="#000000" fill="none"/>
  <path d="m377,310c0,0 0,1 0,2c0,1 0,2 1,2c1,0 2.292908,-0.707092 3,0c0.707092,0.707092 1,2 2,2c1,0 1.693451,0.458801 3,1c0.923889,0.38269 0.292908,1.292908 1,2c0.707092,0.707092 2,0 3,0c1,0 2,2 2,1c0,-1 -1.292908,0.292908 -2,1c-0.707092,0.707092 -1.292908,0.292908 -2,1c-0.707092,0.707092 -0.693451,1.458801 -2,2c-0.923889,0.38269 -2,0 -3,0c-1,0 -1.292908,0.292908 -2,1c-0.707092,0.707092 0,2 0,3c0,1 1,1 2,1c1,0 2,0 3,0c1,0 1,1 2,1c1,0 2,0 3,0c1,0 1.693451,0.458801 3,1c0.923889,0.38269 2,0 2,1c0,1 -1.076111,0.61731 -2,1c-1.306549,0.541199 -2.076111,0.61731 -3,1c-1.306549,0.541199 -1,2 -2,2c-1,0 -1.292908,0.292908 -2,1c-0.707092,0.707092 -1.292908,0.292908 -2,1c-0.707092,0.707092 -1,1 -1,2c0,1 -1,1 -1,2c0,1 -0.707092,2.292908 0,3c0.707092,0.707092 2,0 3,0c1,0 2,0 3,0c1,0 2.292908,0.292908 3,1c0.707092,0.707092 0.707092,0.292908 0,1c-0.707092,0.707092 -2.458801,0.693451 -3,2c-0.38269,0.923889 -1,2 -1,3c0,1 0,2 0,3c0,1 0.292908,1.292908 1,2c0.707092,0.707092 0.292908,1.292908 1,2c0.707092,0.707092 1,1 2,1c1,0 1.292908,0.292908 2,1c0.707092,0.707092 1.292908,0.292908 2,1c0.707092,0.707092 1,1 2,1c1,0 2,0 3,0c1,0 2,0 3,0c1,0 2,0 3,0l1,0l1,0l1,0" id="svg_7" stroke-width="6" stroke="#000000" fill="none"/>
 </g>
</svg>